<?xml version="1.0" standalone="no"?>
<!DOCTYPE svg PUBLIC "-//W3C//DTD SVG 1.1//EN" "http://www.w3.org/Graphics/SVG/1.1/DTD/svg11.dtd">
<svg width="100%" height="100%" viewBox="0 0 272 217" version="1.1" xmlns="http://www.w3.org/2000/svg" xmlns:xlink="http://www.w3.org/1999/xlink" xml:space="preserve" style="fill-rule:evenodd;clip-rule:evenodd;stroke-linecap:round;stroke-linejoin:round;stroke-miterlimit:1.41421;">
    <g transform="matrix(1,0,0,1,-1628.88,-902.509)">
        <g transform="matrix(1.46546,0,0,1.46546,-202.147,-705.006)">
            <g transform="matrix(0.772537,0,0,0.772537,1223.96,1046.41)">
                <path d="M101.117,86.766C99.538,91.266 92.82,89.427 94.042,84.242C94.742,81.274 101.261,72.087 114.118,70.148C126.975,68.21 135.25,75.998 135.25,75.998C135.25,75.998 141.779,65.215 156.716,65.408C170.846,65.589 176.482,75.024 176.482,75.024C176.482,75.024 187.713,65.257 203.521,72.271C216.666,78.103 217.551,90.492 217.551,90.492C217.551,90.492 226.727,88.648 234.334,95.833C241.941,103.018 241.523,110.446 241.523,110.446C241.523,110.446 254.981,112.178 261.075,125.529C266.106,136.55 261.95,145.822 261.95,145.822C261.95,145.822 272.855,151.453 272.475,165.51C272.159,177.203 265.367,182.992 265.367,182.992C265.367,182.992 267.504,191.629 262.415,200.322C257.325,209.016 250.25,211.685 250.25,211.685C250.25,211.685 246.423,221.423 240.413,226.772C234.403,232.121 226.416,237.365 208.132,237.584C189.848,237.802 81.468,235.324 81.468,235.324C81.468,235.324 50.301,235.244 38.03,209.421C27.242,186.718 37.184,168.737 37.184,168.737C37.184,168.737 32.114,161.597 34.655,152.963C37.195,144.33 44.858,140.107 44.858,140.107C44.858,140.107 42.05,132.549 47.92,123.496C53.124,115.47 59.691,114.32 62.507,113.843C65.324,113.367 69.111,119.19 63.465,121.09C57.786,123.001 55.444,125.353 53.805,128.753C52.023,132.451 51.253,135.836 53.015,140.247C53.979,142.658 53.627,144.86 50.726,146.226C47.825,147.592 43.755,150.425 42.786,155.343C41.818,160.261 44.282,164.628 45.02,165.617C45.758,166.606 46.394,168.831 45.401,170.674C44.409,172.516 36.406,191.086 48.823,208.984C61.24,226.882 78.215,224.92 82.353,224.937C86.49,224.954 194.88,226.133 207.637,225.888C220.394,225.642 225.72,222.914 228.601,221.004C231.483,219.093 236.256,214.379 238.586,208.547C240.917,202.715 241.39,202.176 246.617,200.292C251.845,198.407 255.174,188.988 253.51,184.716C251.847,180.445 251.924,178.412 256.196,175.237C259.971,172.431 260.937,166.712 260.686,164.149C260.436,161.586 258.706,155.492 253.272,154.309C247.838,153.125 247.681,148.363 249.969,144.773C252.257,141.183 253.019,133.675 250.608,129.729C248.197,125.784 244.125,120.903 237.782,121.102C231.438,121.301 230.445,117.419 230.813,114.052C231.181,110.686 230.196,105.215 226.829,103.307C223.463,101.399 221.015,100.351 215.039,101.099C209.064,101.847 206.932,99.015 207.512,94.337C208.091,89.659 204.687,82.514 197.785,80.44C190.883,78.367 183.745,79.473 179.944,84.799C176.186,90.065 171.829,87.327 170.798,83.97C169.888,81.003 165.483,74.458 156.701,74.271C148.323,74.093 142.163,79.019 140.804,83.878C139.32,89.182 134.495,88.417 132.861,85.773C131.038,82.824 124.561,75.954 115.225,77.773C105.889,79.593 102.239,83.567 101.117,86.766Z" style="fill:rgb(34,17,34);"/>
            </g>
            <g transform="matrix(1.02957,-0.0133366,0.0183036,1.41302,1204.39,1056.38)">
                <circle cx="105.949" cy="83.707" r="5.605" style="fill:rgb(34,17,34);"/>
            </g>
            <g transform="matrix(1.03182,0.00885758,-0.0121305,1.41308,1258.21,1054.43)">
                <circle cx="105.949" cy="83.707" r="5.605" style="fill:rgb(34,17,34);"/>
            </g>
            <g transform="matrix(1.98689,-0.0281692,0.0297546,2.09872,1141.6,916.671)">
                <path d="M92.736,131.317C92.736,131.317 95.404,131.368 99.303,131.341C103.203,131.313 106.313,131.447 106.313,131.447C106.313,131.447 104.396,135.091 99.294,135.104C94.191,135.116 92.736,131.317 92.736,131.317Z" style="fill:rgb(34,17,34);stroke-width:2px;stroke:rgb(34,17,34);"/>
            </g>
            <g transform="matrix(2.52388,-7.04937e-17,-6.8673e-17,2.44709,1047.39,968.878)">
                <circle cx="105.949" cy="83.707" r="5.605" style="fill:none;stroke-width:2.47px;stroke-linecap:butt;stroke:rgb(62,24,189);"/>
            </g>
            <g transform="matrix(0.38303,0,0,0.38303,919.093,740.582)">
                <path d="M983.002,1125.57C983.253,1125.61 983.506,1125.65 983.754,1125.7C984.499,1125.87 985.221,1126.13 985.895,1126.49C987.02,1127.09 988.005,1127.93 988.76,1128.96C989.364,1129.78 989.818,1130.71 990.095,1131.69C990.233,1132.17 990.328,1132.68 990.377,1133.18C990.401,1133.44 990.403,1133.69 990.416,1133.94C990.451,1139.31 990.492,1144.67 990.531,1150.04C990.608,1160.56 990.681,1171.09 990.754,1181.62C990.895,1202.61 991.03,1223.61 991.12,1244.6C991.154,1252.41 991.182,1260.23 991.19,1268.04C991.193,1271.27 991.194,1274.5 991.183,1277.73C991.176,1279.91 991.165,1282.09 991.134,1284.27L991.126,1284.74C991.122,1284.94 991.122,1285.16 991.114,1285.37C991.112,1285.42 991.079,1285.86 991.069,1285.98C991.037,1286.4 990.998,1286.82 990.952,1287.23C990.84,1288.25 990.687,1289.26 990.493,1290.27C989.937,1293.14 989.035,1295.95 987.766,1298.58C986.913,1300.36 985.898,1302.05 984.727,1303.63C983.462,1305.34 982.018,1306.91 980.421,1308.32C979.048,1309.52 977.563,1310.6 975.991,1311.54C972.754,1313.46 969.146,1314.75 965.42,1315.29C962.716,1315.69 959.954,1315.69 957.252,1315.28C955.282,1314.98 953.344,1314.46 951.493,1313.72C949.598,1312.96 947.794,1311.98 946.136,1310.79C944.226,1309.41 942.514,1307.78 941.055,1305.93C939.37,1303.81 938.029,1301.42 937.043,1298.89C935.988,1296.19 935.339,1293.34 935.031,1290.46C934.836,1288.63 934.786,1285.8 934.996,1283.71C939.635,1284.62 947.977,1285.37 951.978,1285.51C951.98,1286.62 951.855,1287.8 951.902,1288.31C951.938,1288.71 951.986,1289.12 952.047,1289.51C952.093,1289.81 952.146,1290.11 952.208,1290.41C952.601,1292.31 953.336,1294.18 954.612,1295.66C954.817,1295.89 955.034,1296.12 955.263,1296.33C955.605,1296.65 955.975,1296.94 956.366,1297.19C956.914,1297.55 957.504,1297.83 958.118,1298.05C958.977,1298.35 959.882,1298.53 960.791,1298.57C961.957,1298.64 963.132,1298.5 964.259,1298.2C965.703,1297.82 967.071,1297.16 968.28,1296.28C968.881,1295.85 969.443,1295.36 969.959,1294.82C970.856,1293.89 971.61,1292.83 972.211,1291.68C972.669,1290.81 973.039,1289.89 973.329,1288.95C973.757,1287.55 974.003,1286.11 974.121,1284.65L974.125,1284.6C974.17,1282.29 974.176,1279.98 974.183,1277.67C974.196,1273.71 974.193,1269.76 974.187,1265.8C974.17,1254.73 974.12,1243.66 974.063,1232.59C973.957,1211.74 973.819,1190.88 973.674,1170.03C973.593,1158.45 973.505,1146.87 973.424,1135.29L973.416,1134.06C973.426,1133.8 973.424,1133.55 973.445,1133.29C973.509,1132.53 973.675,1131.78 973.939,1131.07C974.378,1129.87 975.088,1128.78 976.002,1127.89C976.917,1127.01 978.029,1126.33 979.237,1125.93C979.961,1125.69 980.718,1125.55 981.48,1125.51C981.734,1125.5 981.988,1125.51 982.242,1125.51C982.496,1125.53 982.749,1125.55 983.002,1125.57Z" style="fill:rgb(62,24,189);fill-rule:nonzero;"/>
            </g>
            <g transform="matrix(2.0833,0,0,1.16193,1168.26,1039.58)">
                <path d="M64.644,116.025C64.644,114.159 63.799,112.644 62.758,112.644L59.704,112.644C58.664,112.644 57.819,114.159 57.819,116.025L57.819,116.088C57.819,117.954 58.664,119.469 59.704,119.469L62.758,119.469C63.799,119.469 64.644,117.954 64.644,116.088L64.644,116.025Z" style="fill:rgb(62,24,189);"/>
            </g>
        </g>
    </g>
</svg>
