<?xml version="1.0" encoding="iso-8859-1"?>
<!-- Generator: Adobe Illustrator 18.0.0, SVG Export Plug-In . SVG Version: 6.00 Build 0)  -->
<!DOCTYPE svg PUBLIC "-//W3C//DTD SVG 1.1//EN" "http://www.w3.org/Graphics/SVG/1.1/DTD/svg11.dtd">
<svg version="1.1" id="Capa_1" xmlns="http://www.w3.org/2000/svg" xmlns:xlink="http://www.w3.org/1999/xlink" x="0px" y="0px"
	 viewBox="0 0 203.305 203.305" style="enable-background:new 0 0 203.305 203.305;" xml:space="preserve">
<g>
	<path d="M42.528,83.982c17.265,0,31.31-14.045,31.31-31.31c0-17.266-14.046-31.314-31.31-31.314
		c-17.264,0-31.31,14.047-31.31,31.314C11.219,69.937,25.264,83.982,42.528,83.982z M42.528,36.359
		c8.994,0,16.31,7.318,16.31,16.314c0,8.993-7.317,16.31-16.31,16.31c-8.993,0-16.31-7.316-16.31-16.31
		C26.219,43.678,33.535,36.359,42.528,36.359z"/>
	<path d="M54.704,92.087H30.547C13.703,92.087,0,105.792,0,122.638v51.808c0,4.142,3.358,7.5,7.5,7.5c4.142,0,7.5-3.358,7.5-7.5
		v-51.808c0-8.575,6.974-15.551,15.547-15.551h24.157c8.572,0,15.546,6.976,15.546,15.551v51.808c0,4.142,3.358,7.5,7.5,7.5
		c4.142,0,7.5-3.358,7.5-7.5v-51.808C85.25,105.792,71.547,92.087,54.704,92.087z"/>
	<path d="M160.584,83.982c17.265,0,31.311-14.045,31.311-31.31c0-17.266-14.046-31.314-31.311-31.314
		c-17.265,0-31.311,14.047-31.311,31.314C129.273,69.937,143.319,83.982,160.584,83.982z M160.584,36.359
		c8.994,0,16.311,7.318,16.311,16.314c0,8.993-7.316,16.31-16.311,16.31c-8.994,0-16.311-7.316-16.311-16.31
		C144.273,43.678,151.59,36.359,160.584,36.359z"/>
	<path d="M172.759,92.087h-24.157c-16.843,0-30.546,13.705-30.546,30.551v51.808c0,4.142,3.357,7.5,7.5,7.5s7.5-3.358,7.5-7.5
		v-51.808c0-8.575,6.974-15.551,15.546-15.551h24.157c8.572,0,15.546,6.976,15.546,15.551v51.808c0,4.142,3.357,7.5,7.5,7.5
		c4.143,0,7.5-3.358,7.5-7.5v-51.808C203.305,105.792,189.602,92.087,172.759,92.087z"/>
	<path d="M118.733,66.968c-3.706-1.854-8.211-0.351-10.063,3.354l-7.27,14.538l-6.768-13.535c-1.852-3.705-6.357-5.208-10.062-3.354
		c-3.705,1.852-5.207,6.357-3.354,10.062l13.476,26.951c1.27,2.541,3.867,4.146,6.708,4.146c2.841,0,5.437-1.605,6.708-4.146
		l13.978-27.954C123.939,73.325,122.438,68.82,118.733,66.968z"/>
</g>
<g>
</g>
<g>
</g>
<g>
</g>
<g>
</g>
<g>
</g>
<g>
</g>
<g>
</g>
<g>
</g>
<g>
</g>
<g>
</g>
<g>
</g>
<g>
</g>
<g>
</g>
<g>
</g>
<g>
</g>
</svg>
